<svg width="20" height="29" viewBox="0 0 20 29" fill="none" xmlns="http://www.w3.org/2000/svg">
<path d="M10 0C7.34784 0 4.8043 1.05357 2.92893 2.92893C1.05357 4.8043 0 7.34784 0 10C0 17.3 8.88 27.25 9.26 27.67C9.35379 27.7748 9.46862 27.8585 9.597 27.9159C9.72537 27.9733 9.86439 28.0029 10.005 28.0029C10.1456 28.0029 10.2846 27.9733 10.413 27.9159C10.5414 27.8585 10.6562 27.7748 10.75 27.67C11.12 27.25 20 17.3 20 10C20 8.68678 19.7413 7.38642 19.2388 6.17317C18.7362 4.95991 17.9997 3.85752 17.0711 2.92893C16.1425 2.00035 15.0401 1.26375 13.8268 0.761205C12.6136 0.258658 11.3132 0 10 0ZM10 25.46C7.89 22.93 2 15.39 2 10C2 7.87827 2.84285 5.84344 4.34315 4.34315C5.84344 2.84285 7.87827 2 10 2C12.1217 2 14.1566 2.84285 15.6569 4.34315C17.1571 5.84344 18 7.87827 18 10C18 15.39 12.11 22.93 10 25.46Z" fill="#69A54D"/>
</svg>
