<svg width="92" height="71" viewBox="0 0 92 71" fill="none" xmlns="http://www.w3.org/2000/svg">
<path opacity="0.5" d="M29.3565 70.152C45.9645 70.152 58.1565 57.576 58.1565 35.4C58.1565 13.224 45.9645 0.647999 29.3565 0.647999C12.8445 0.647999 0.5565 13.224 0.5565 35.4C0.5565 57.576 12.8445 70.152 29.3565 70.152ZM29.3565 57C21.6765 57 16.3005 50.664 16.3005 35.4C16.3005 20.136 21.6765 13.8 29.3565 13.8C37.1325 13.8 42.5085 20.136 42.5085 35.4C42.5085 50.664 37.1325 57 29.3565 57ZM62.0783 1.8V14.28H75.5182V69H91.0703V1.8H62.0783Z" fill="white" fill-opacity="0.7"/>
</svg>
