<svg width="152" height="57" viewBox="0 0 152 57" fill="none" xmlns="http://www.w3.org/2000/svg">
<path d="M0.08 -3.8147e-06V19.68H11.6V10.56H30.16L10.08 56H24.16L44.96 8.4V-3.8147e-06H0.08ZM68.6013 21.04H64.0413L64.9213 10.4H88.2813V-3.8147e-06H54.1213L51.2413 31.52H65.5613C75.7213 31.52 78.6013 34.4 78.6013 38.8C78.6013 43.36 74.6013 46.08 68.1213 46.08C62.2813 46.08 56.4413 44.24 52.2013 41.04L47.0813 50.96C52.5213 54.8 60.6813 56.96 68.4413 56.96C84.4413 56.96 91.7213 48.32 91.7213 38.4C91.7213 28.48 85.1613 21.04 68.6013 21.04ZM110.597 43.088L110.405 48.272C110.285 50.72 110.141 52.952 108.365 52.952C108.197 52.952 108.005 52.928 107.813 52.904L107.621 55.976C108.365 56.168 108.989 56.264 109.565 56.264C112.757 56.264 113.501 53.048 113.693 48.44L113.813 46.16H117.893V56H121.637V43.088H110.597ZM137.79 49.592C137.79 45.44 134.862 42.896 131.07 42.896C127.134 42.896 124.182 45.68 124.182 49.544C124.182 53.384 127.086 56.192 131.55 56.192C133.878 56.192 135.678 55.472 136.878 54.104L134.886 51.944C133.998 52.784 133.014 53.192 131.646 53.192C129.678 53.192 128.31 52.208 127.95 50.6H137.718C137.742 50.288 137.79 49.88 137.79 49.592ZM131.094 45.728C132.774 45.728 133.998 46.784 134.262 48.416H127.902C128.166 46.76 129.39 45.728 131.094 45.728ZM151.062 43.088H138.606V46.16H142.974V56H146.694V46.16H151.062V43.088Z" fill="#CDBD84"/>
</svg>
