<svg width="94" height="57" viewBox="0 0 94 57" fill="none" xmlns="http://www.w3.org/2000/svg">
<path d="M30.28 22.8C35.1867 23.6 38.9467 25.44 41.56 28.32C44.1733 31.1467 45.48 34.6667 45.48 38.88C45.48 42.1333 44.6267 45.1467 42.92 47.92C41.2133 50.64 38.6 52.8267 35.08 54.48C31.6133 56.1333 27.3467 56.96 22.28 56.96C18.3333 56.96 14.44 56.4533 10.6 55.44C6.81333 54.3733 3.58667 52.88 0.92 50.96L5.96 41.04C8.09333 42.64 10.5467 43.8933 13.32 44.8C16.1467 45.6533 19.0267 46.08 21.96 46.08C25.2133 46.08 27.7733 45.4667 29.64 44.24C31.5067 42.96 32.44 41.1733 32.44 38.88C32.44 34.2933 28.9467 32 21.96 32H16.04V23.44L27.56 10.4H3.72V-3.8147e-06H42.92V8.4L30.28 22.8ZM69.8825 21.04C77.7758 21.04 83.5892 22.6133 87.3225 25.76C91.1092 28.9067 93.0025 33.12 93.0025 38.4C93.0025 41.8133 92.1492 44.9333 90.4425 47.76C88.7358 50.5333 86.1225 52.7733 82.6025 54.48C79.1358 56.1333 74.8425 56.96 69.7225 56.96C65.7758 56.96 61.8825 56.4533 58.0425 55.44C54.2558 54.3733 51.0292 52.88 48.3625 50.96L53.4825 41.04C55.6158 42.64 58.0692 43.8933 60.8425 44.8C63.6158 45.6533 66.4692 46.08 69.4025 46.08C72.6558 46.08 75.2158 45.44 77.0825 44.16C78.9492 42.88 79.8825 41.0933 79.8825 38.8C79.8825 36.4 78.8958 34.5867 76.9225 33.36C75.0025 32.1333 71.6425 31.52 66.8425 31.52H52.5225L55.4025 -3.8147e-06H89.5625V10.4H66.2025L65.3225 21.04H69.8825Z" fill="#CDBD84"/>
</svg>
