<svg width="93" height="58" viewBox="0 0 93 58" fill="none" xmlns="http://www.w3.org/2000/svg">
<path d="M20.88 46.44L33.76 34.28C41.6 27 43.12 22.04 43.12 16.6C43.12 6.44 34.8 0.039999 22.32 0.039999C12.24 0.039999 4.4 4.12 0.08 10.44L9.52 16.52C12.24 12.76 16.32 10.92 21.12 10.92C27.04 10.92 30.08 13.48 30.08 17.88C30.08 20.6 29.2 23.48 24.24 28.2L2.64 48.6V57H44.96V46.44H20.88ZM69.5075 22.04H64.9475L65.8275 11.4H89.1875V0.999996H55.0275L52.1475 32.52H66.4675C76.6275 32.52 79.5075 35.4 79.5075 39.8C79.5075 44.36 75.5075 47.08 69.0275 47.08C63.1875 47.08 57.3475 45.24 53.1075 42.04L47.9875 51.96C53.4275 55.8 61.5875 57.96 69.3475 57.96C85.3475 57.96 92.6275 49.32 92.6275 39.4C92.6275 29.48 86.0675 22.04 69.5075 22.04Z" fill="#CDBD84"/>
</svg>
