<svg width="173" height="58" viewBox="0 0 173 58" fill="none" xmlns="http://www.w3.org/2000/svg">
<path d="M0.488 42.696V45.672L8.48 48.6L0.488 51.504V54.504L11.912 50.16V47.04L0.488 42.696ZM41.0441 46.44L53.9241 34.28C61.7641 27 63.2841 22.04 63.2841 16.6C63.2841 6.44 54.9641 0.039999 42.4841 0.039999C32.4041 0.039999 24.5641 4.12 20.2441 10.44L29.6841 16.52C32.4041 12.76 36.4841 10.92 41.2841 10.92C47.2041 10.92 50.2441 13.48 50.2441 17.88C50.2441 20.6 49.3641 23.48 44.4041 28.2L22.8041 48.6V57H65.1241V46.44H41.0441ZM94.3153 57.96C108.155 57.96 118.315 47.48 118.315 29C118.315 10.52 108.155 0.039999 94.3153 0.039999C80.5553 0.039999 70.3153 10.52 70.3153 29C70.3153 47.48 80.5553 57.96 94.3153 57.96ZM94.3153 47C87.9153 47 83.4353 41.72 83.4353 29C83.4353 16.28 87.9153 11 94.3153 11C100.795 11 105.275 16.28 105.275 29C105.275 41.72 100.795 47 94.3153 47ZM148.612 57.96C162.452 57.96 172.612 47.48 172.612 29C172.612 10.52 162.452 0.039999 148.612 0.039999C134.852 0.039999 124.612 10.52 124.612 29C124.612 47.48 134.852 57.96 148.612 57.96ZM148.612 47C142.212 47 137.732 41.72 137.732 29C137.732 16.28 142.212 11 148.612 11C155.092 11 159.572 16.28 159.572 29C159.572 41.72 155.092 47 148.612 47Z" fill="#CDBD84"/>
</svg>
