<svg width="99" height="58" viewBox="0 0 99 58" fill="none" xmlns="http://www.w3.org/2000/svg">
<path d="M44.96 46.44V57H2.64V48.6L24.24 28.2C26.5333 26.0133 28.08 24.1467 28.88 22.6C29.68 21 30.08 19.4267 30.08 17.88C30.08 15.64 29.3067 13.9333 27.76 12.76C26.2667 11.5333 24.0533 10.92 21.12 10.92C18.6667 10.92 16.4533 11.4 14.48 12.36C12.5067 13.2667 10.8533 14.6533 9.52 16.52L0.08 10.44C2.26667 7.18667 5.28 4.65333 9.12 2.84C12.96 0.973331 17.36 0.039999 22.32 0.039999C26.48 0.039999 30.1067 0.733331 33.2 2.12C36.3467 3.45333 38.7733 5.37333 40.48 7.88C42.24 10.3333 43.12 13.24 43.12 16.6C43.12 19.64 42.48 22.4933 41.2 25.16C39.92 27.8267 37.44 30.8667 33.76 34.28L20.88 46.44H44.96ZM74.1513 57.96C69.5113 57.96 65.3779 56.8133 61.7513 54.52C58.1246 52.2267 55.2713 48.92 53.1913 44.6C51.1646 40.2267 50.1513 35.0267 50.1513 29C50.1513 22.9733 51.1646 17.8 53.1913 13.48C55.2713 9.10666 58.1246 5.77333 61.7513 3.48C65.3779 1.18667 69.5113 0.039999 74.1513 0.039999C78.7913 0.039999 82.9246 1.18667 86.5513 3.48C90.1779 5.77333 93.0046 9.10666 95.0313 13.48C97.1113 17.8 98.1513 22.9733 98.1513 29C98.1513 35.0267 97.1113 40.2267 95.0313 44.6C93.0046 48.92 90.1779 52.2267 86.5513 54.52C82.9246 56.8133 78.7913 57.96 74.1513 57.96ZM74.1513 47C77.5646 47 80.2313 45.5333 82.1513 42.6C84.1246 39.6667 85.1113 35.1333 85.1113 29C85.1113 22.8667 84.1246 18.3333 82.1513 15.4C80.2313 12.4667 77.5646 11 74.1513 11C70.7913 11 68.1246 12.4667 66.1513 15.4C64.2313 18.3333 63.2713 22.8667 63.2713 29C63.2713 35.1333 64.2313 39.6667 66.1513 42.6C68.1246 45.5333 70.7913 47 74.1513 47Z" fill="#CDBD84"/>
</svg>
