<svg width="87" height="53" viewBox="0 0 87 53" fill="none" xmlns="http://www.w3.org/2000/svg">
<path d="M22.408 52.864C18.232 52.864 14.512 51.832 11.248 49.768C7.984 47.704 5.416 44.728 3.544 40.84C1.72 36.904 0.808 32.224 0.808 26.8C0.808 21.376 1.72 16.72 3.544 12.832C5.416 8.896 7.984 5.896 11.248 3.832C14.512 1.768 18.232 0.735999 22.408 0.735999C26.584 0.735999 30.304 1.768 33.568 3.832C36.832 5.896 39.376 8.896 41.2 12.832C43.072 16.72 44.008 21.376 44.008 26.8C44.008 32.224 43.072 36.904 41.2 40.84C39.376 44.728 36.832 47.704 33.568 49.768C30.304 51.832 26.584 52.864 22.408 52.864ZM22.408 43C25.48 43 27.88 41.68 29.608 39.04C31.384 36.4 32.272 32.32 32.272 26.8C32.272 21.28 31.384 17.2 29.608 14.56C27.88 11.92 25.48 10.6 22.408 10.6C19.384 10.6 16.984 11.92 15.208 14.56C13.48 17.2 12.616 21.28 12.616 26.8C12.616 32.32 13.48 36.4 15.208 39.04C16.984 41.68 19.384 43 22.408 43ZM72.5161 22.12C76.9321 22.84 80.3161 24.496 82.6681 27.088C85.0201 29.632 86.1961 32.8 86.1961 36.592C86.1961 39.52 85.4281 42.232 83.8921 44.728C82.3561 47.176 80.0041 49.144 76.8361 50.632C73.7161 52.12 69.8761 52.864 65.3161 52.864C61.7641 52.864 58.2601 52.408 54.8041 51.496C51.3961 50.536 48.4921 49.192 46.0921 47.464L50.6281 38.536C52.5481 39.976 54.7561 41.104 57.2521 41.92C59.7961 42.688 62.3881 43.072 65.0281 43.072C67.9561 43.072 70.2601 42.52 71.9401 41.416C73.6201 40.264 74.4601 38.656 74.4601 36.592C74.4601 32.464 71.3161 30.4 65.0281 30.4H59.7001V22.696L70.0681 10.96H48.6121V1.6H83.8921V9.16L72.5161 22.12Z" fill="white" fill-opacity="0.33"/>
</svg>
