<svg width="69" height="53" viewBox="0 0 69 53" fill="none" xmlns="http://www.w3.org/2000/svg">
<path d="M22.408 52.864C34.864 52.864 44.008 43.432 44.008 26.8C44.008 10.168 34.864 0.735999 22.408 0.735999C10.024 0.735999 0.808 10.168 0.808 26.8C0.808 43.432 10.024 52.864 22.408 52.864ZM22.408 43C16.648 43 12.616 38.248 12.616 26.8C12.616 15.352 16.648 10.6 22.408 10.6C28.24 10.6 32.272 15.352 32.272 26.8C32.272 38.248 28.24 43 22.408 43ZM46.9493 1.6V10.96H57.0293V52H68.6933V1.6H46.9493Z" fill="white" fill-opacity="0.5"/>
</svg>
