<svg width="87" height="53" viewBox="0 0 87 53" fill="none" xmlns="http://www.w3.org/2000/svg">
<path d="M22.408 52.864C18.232 52.864 14.512 51.832 11.248 49.768C7.984 47.704 5.416 44.728 3.544 40.84C1.72 36.904 0.808 32.224 0.808 26.8C0.808 21.376 1.72 16.72 3.544 12.832C5.416 8.896 7.984 5.896 11.248 3.832C14.512 1.768 18.232 0.735999 22.408 0.735999C26.584 0.735999 30.304 1.768 33.568 3.832C36.832 5.896 39.376 8.896 41.2 12.832C43.072 16.72 44.008 21.376 44.008 26.8C44.008 32.224 43.072 36.904 41.2 40.84C39.376 44.728 36.832 47.704 33.568 49.768C30.304 51.832 26.584 52.864 22.408 52.864ZM22.408 43C25.48 43 27.88 41.68 29.608 39.04C31.384 36.4 32.272 32.32 32.272 26.8C32.272 21.28 31.384 17.2 29.608 14.56C27.88 11.92 25.48 10.6 22.408 10.6C19.384 10.6 16.984 11.92 15.208 14.56C13.48 17.2 12.616 21.28 12.616 26.8C12.616 32.32 13.48 36.4 15.208 39.04C16.984 41.68 19.384 43 22.408 43ZM86.9093 42.496V52H48.8213V44.44L68.2613 26.08C70.3253 24.112 71.7173 22.432 72.4373 21.04C73.1573 19.6 73.5173 18.184 73.5173 16.792C73.5173 14.776 72.8213 13.24 71.4293 12.184C70.0853 11.08 68.0933 10.528 65.4533 10.528C63.2453 10.528 61.2533 10.96 59.4773 11.824C57.7013 12.64 56.2133 13.888 55.0133 15.568L46.5173 10.096C48.4853 7.168 51.1973 4.888 54.6533 3.256C58.1093 1.576 62.0693 0.735999 66.5333 0.735999C70.2773 0.735999 73.5413 1.36 76.3253 2.608C79.1573 3.808 81.3413 5.536 82.8773 7.792C84.4613 10 85.2533 12.616 85.2533 15.64C85.2533 18.376 84.6773 20.944 83.5253 23.344C82.3733 25.744 80.1413 28.48 76.8293 31.552L65.2373 42.496H86.9093Z" fill="white" fill-opacity="0.5"/>
</svg>
