<svg width="96" height="53" viewBox="0 0 96 53" fill="none" xmlns="http://www.w3.org/2000/svg">
<path d="M22.408 52.864C18.232 52.864 14.512 51.832 11.248 49.768C7.984 47.704 5.416 44.728 3.544 40.84C1.72 36.904 0.808 32.224 0.808 26.8C0.808 21.376 1.72 16.72 3.544 12.832C5.416 8.896 7.984 5.896 11.248 3.832C14.512 1.768 18.232 0.735999 22.408 0.735999C26.584 0.735999 30.304 1.768 33.568 3.832C36.832 5.896 39.376 8.896 41.2 12.832C43.072 16.72 44.008 21.376 44.008 26.8C44.008 32.224 43.072 36.904 41.2 40.84C39.376 44.728 36.832 47.704 33.568 49.768C30.304 51.832 26.584 52.864 22.408 52.864ZM22.408 43C25.48 43 27.88 41.68 29.608 39.04C31.384 36.4 32.272 32.32 32.272 26.8C32.272 21.28 31.384 17.2 29.608 14.56C27.88 11.92 25.48 10.6 22.408 10.6C19.384 10.6 16.984 11.92 15.208 14.56C13.48 17.2 12.616 21.28 12.616 26.8C12.616 32.32 13.48 36.4 15.208 39.04C16.984 41.68 19.384 43 22.408 43ZM95.8272 41.416H87.6192V52H76.2432V41.416H49.0992V33.568L72.8592 1.6H85.0992L63.0672 31.912H76.6032V22.48H87.6192V31.912H95.8272V41.416Z" fill="white" fill-opacity="0.6"/>
</svg>
